<svg width="154" height="22" viewBox="0 0 154 22" fill="none" xmlns="http://www.w3.org/2000/svg">
<path d="M45.2369 3.47951C46.6259 3.47951 47.8398 3.75449 48.8784 4.30444C49.9295 4.84218 50.7367 5.59989 51.2998 6.57759C51.8629 7.55528 52.1444 8.67352 52.1444 9.93231C52.1444 11.1789 51.8566 12.291 51.281 13.2687C50.7179 14.2464 49.9108 15.0163 48.8596 15.5785C47.821 16.1285 46.6134 16.4034 45.2369 16.4034H40V3.47951H45.2369ZM44.9554 13.232C46.0315 13.232 46.8762 12.9448 47.4894 12.3704C48.1025 11.796 48.4091 10.9833 48.4091 9.93231C48.4091 8.86906 48.1025 8.05024 47.4894 7.47585C46.8762 6.88923 46.0315 6.59592 44.9554 6.59592H43.679V13.232H44.9554Z" fill="#2D314D"/>
<path d="M55.6611 5.16604C55.0104 5.16604 54.4848 4.99494 54.0844 4.65275C53.6965 4.29833 53.5025 3.85837 53.5025 3.33286C53.5025 2.79512 53.6965 2.34905 54.0844 1.99464C54.4848 1.64022 55.0104 1.46301 55.6611 1.46301C56.2993 1.46301 56.8123 1.64022 57.2003 1.99464C57.6007 2.34905 57.8009 2.79512 57.8009 3.33286C57.8009 3.85837 57.6007 4.29833 57.2003 4.65275C56.8123 4.99494 56.2993 5.16604 55.6611 5.16604ZM57.4818 6.11929V16.4034H53.8028V6.11929H57.4818Z" fill="#2D314D"/>
<path d="M63.4624 5.99097C64.1757 5.99097 64.7951 6.13151 65.3207 6.4126C65.8587 6.69369 66.2717 7.07255 66.5595 7.54917V6.11929H70.2385V16.2934C70.2385 17.2589 70.0508 18.1266 69.6754 18.8966C69.3 19.6787 68.7118 20.302 67.911 20.7664C67.1226 21.2308 66.1215 21.463 64.9077 21.463C63.2809 21.463 61.9795 21.0903 61.0035 20.3448C60.0274 19.5993 59.4706 18.5849 59.3329 17.3017H62.9556C63.0307 17.6317 63.2184 17.8883 63.5187 18.0716C63.819 18.2549 64.2069 18.3466 64.6825 18.3466C65.9338 18.3466 66.5595 17.6622 66.5595 16.2934V14.9736C66.2717 15.4502 65.8587 15.829 65.3207 16.1101C64.7951 16.3912 64.1757 16.5318 63.4624 16.5318C62.624 16.5318 61.8606 16.3179 61.1724 15.8901C60.4967 15.4624 59.9586 14.8513 59.5581 14.057C59.1702 13.2504 58.9763 12.3154 58.9763 11.2522C58.9763 10.189 59.1702 9.26014 59.5581 8.46576C59.9586 7.67138 60.4967 7.06032 61.1724 6.63258C61.8606 6.20484 62.624 5.99097 63.4624 5.99097ZM66.5595 11.2522C66.5595 10.5923 66.3718 10.0729 65.9964 9.69399C65.6335 9.31514 65.183 9.12571 64.6449 9.12571C64.0943 9.12571 63.6376 9.31514 63.2747 9.69399C62.9118 10.0606 62.7303 10.58 62.7303 11.2522C62.7303 11.9121 62.9118 12.4377 63.2747 12.8287C63.6376 13.2076 64.0943 13.397 64.6449 13.397C65.183 13.397 65.6335 13.2076 65.9964 12.8287C66.3718 12.4499 66.5595 11.9244 66.5595 11.2522Z" fill="#2D314D"/>
<path d="M74.1932 5.16604C73.5425 5.16604 73.0169 4.99494 72.6165 4.65275C72.2285 4.29833 72.0346 3.85837 72.0346 3.33286C72.0346 2.79512 72.2285 2.34905 72.6165 1.99464C73.0169 1.64022 73.5425 1.46301 74.1932 1.46301C74.8314 1.46301 75.3444 1.64022 75.7323 1.99464C76.1328 2.34905 76.333 2.79512 76.333 3.33286C76.333 3.85837 76.1328 4.29833 75.7323 4.65275C75.3444 4.99494 74.8314 5.16604 74.1932 5.16604ZM76.0139 6.11929V16.4034H72.3349V6.11929H76.0139Z" fill="#2D314D"/>
<path d="M84.322 13.342V16.4034H82.7265C80.0361 16.4034 78.6909 15.1019 78.6909 12.4988V9.10738H77.3957V6.11929H78.6909V3.62617H82.3886V6.11929H84.3032V9.10738H82.3886V12.5538C82.3886 12.8348 82.4512 13.0365 82.5764 13.1587C82.714 13.2809 82.9392 13.342 83.2521 13.342H84.322Z" fill="#2D314D"/>
<path d="M85.4088 11.2522C85.4088 10.189 85.6027 9.26014 85.9907 8.46576C86.3911 7.67138 86.9292 7.06032 87.6049 6.63258C88.2932 6.20484 89.0565 5.99097 89.8949 5.99097C90.6207 5.99097 91.2464 6.13151 91.7719 6.4126C92.2975 6.69369 92.7042 7.07255 92.992 7.54917V6.11929H96.671V16.4034H92.992V14.9736C92.7042 15.4502 92.2912 15.829 91.7532 16.1101C91.2276 16.3912 90.6082 16.5318 89.8949 16.5318C89.0565 16.5318 88.2932 16.3179 87.6049 15.8901C86.9292 15.4624 86.3911 14.8513 85.9907 14.057C85.6027 13.2504 85.4088 12.3154 85.4088 11.2522ZM92.992 11.2522C92.992 10.5923 92.8043 10.0729 92.4289 9.69399C92.066 9.31514 91.6155 9.12571 91.0774 9.12571C90.5268 9.12571 90.0701 9.31514 89.7072 9.69399C89.3443 10.0606 89.1629 10.58 89.1629 11.2522C89.1629 11.9121 89.3443 12.4377 89.7072 12.8287C90.0701 13.2076 90.5268 13.397 91.0774 13.397C91.6155 13.397 92.066 13.2076 92.4289 12.8287C92.8043 12.4499 92.992 11.9244 92.992 11.2522Z" fill="#2D314D"/>
<path d="M102.446 2.8379V16.4034H98.7674V2.8379H102.446Z" fill="#2D314D"/>
<path d="M108.221 7.54917C108.508 7.06032 108.915 6.68147 109.441 6.4126C109.966 6.13151 110.586 5.99097 111.299 5.99097C112.137 5.99097 112.894 6.20484 113.57 6.63258C114.258 7.06032 114.796 7.67138 115.184 8.46576C115.585 9.26014 115.785 10.189 115.785 11.2522C115.785 12.3154 115.585 13.2504 115.184 14.057C114.796 14.8513 114.258 15.4624 113.57 15.8901C112.894 16.3179 112.137 16.5318 111.299 16.5318C110.586 16.5318 109.966 16.3973 109.441 16.1285C108.915 15.8474 108.508 15.4624 108.221 14.9736V16.4034H104.542V2.8379H108.221V7.54917ZM112.05 11.2522C112.05 10.58 111.862 10.0606 111.487 9.69399C111.124 9.31514 110.673 9.12571 110.135 9.12571C109.597 9.12571 109.14 9.31514 108.765 9.69399C108.402 10.0729 108.221 10.5923 108.221 11.2522C108.221 11.9244 108.402 12.4499 108.765 12.8287C109.14 13.2076 109.597 13.397 110.135 13.397C110.673 13.397 111.124 13.2076 111.487 12.8287C111.862 12.4377 112.05 11.9121 112.05 11.2522Z" fill="#2D314D"/>
<path d="M116.699 11.2522C116.699 10.189 116.893 9.26014 117.281 8.46576C117.681 7.67138 118.219 7.06032 118.895 6.63258C119.583 6.20484 120.347 5.99097 121.185 5.99097C121.911 5.99097 122.536 6.13151 123.062 6.4126C123.588 6.69369 123.994 7.07255 124.282 7.54917V6.11929H127.961V16.4034H124.282V14.9736C123.994 15.4502 123.581 15.829 123.043 16.1101C122.518 16.3912 121.898 16.5318 121.185 16.5318C120.347 16.5318 119.583 16.3179 118.895 15.8901C118.219 15.4624 117.681 14.8513 117.281 14.057C116.893 13.2504 116.699 12.3154 116.699 11.2522ZM124.282 11.2522C124.282 10.5923 124.094 10.0729 123.719 9.69399C123.356 9.31514 122.906 9.12571 122.368 9.12571C121.817 9.12571 121.36 9.31514 120.997 9.69399C120.634 10.0606 120.453 10.58 120.453 11.2522C120.453 11.9121 120.634 12.4377 120.997 12.8287C121.36 13.2076 121.817 13.397 122.368 13.397C122.906 13.397 123.356 13.2076 123.719 12.8287C124.094 12.4499 124.282 11.9244 124.282 11.2522Z" fill="#2D314D"/>
<path d="M136.946 6.02763C138.16 6.02763 139.124 6.42482 139.837 7.2192C140.55 8.00136 140.907 9.0646 140.907 10.4089V16.4034H137.228V10.8856C137.228 10.2989 137.071 9.84065 136.759 9.51068C136.446 9.16848 136.026 8.99739 135.501 8.99739C134.95 8.99739 134.519 9.16848 134.206 9.51068C133.893 9.84065 133.736 10.2989 133.736 10.8856V16.4034H130.057V6.11929H133.736V7.58584C134.062 7.12143 134.5 6.74868 135.05 6.4676C135.601 6.17429 136.233 6.02763 136.946 6.02763Z" fill="#2D314D"/>
<path d="M149.514 16.4034L146.604 12.1871V16.4034H142.925V2.8379H146.604V10.1523L149.514 6.11929H153.925L149.777 11.2889L154 16.4034H149.514Z" fill="#2D314D"/>
<path fill-rule="evenodd" clip-rule="evenodd" d="M10.8025 0.536987L0 20.241H5.98608L16.7885 0.536987H10.8025Z" fill="url(#paint0_linear_72149_7)"/>
<path opacity="0.5" fill-rule="evenodd" clip-rule="evenodd" d="M18.1709 0.536987L7.36841 20.241H13.3545L24.157 0.536987H18.1709Z" fill="url(#paint1_linear_72149_7)"/>
<path opacity="0.15" fill-rule="evenodd" clip-rule="evenodd" d="M25.5393 0.536987L14.7368 20.241H20.7229L31.5254 0.536987H25.5393Z" fill="url(#paint2_linear_72149_7)"/>
<defs>
<linearGradient id="paint0_linear_72149_7" x1="5.13267" y1="-6.88512" x2="-10.1946" y2="10.4498" gradientUnits="userSpaceOnUse">
<stop stop-color="#33D35E"/>
<stop offset="1" stop-color="#2AB6D9"/>
</linearGradient>
<linearGradient id="paint1_linear_72149_7" x1="12.5011" y1="-6.88512" x2="-2.82619" y2="10.4498" gradientUnits="userSpaceOnUse">
<stop stop-color="#33D35E"/>
<stop offset="1" stop-color="#2AB6D9"/>
</linearGradient>
<linearGradient id="paint2_linear_72149_7" x1="19.8695" y1="-6.88512" x2="4.54222" y2="10.4498" gradientUnits="userSpaceOnUse">
<stop stop-color="#33D35E"/>
<stop offset="1" stop-color="#2AB6D9"/>
</linearGradient>
</defs>
</svg>
