<svg width="153" height="21" viewBox="0 0 153 21" fill="none" xmlns="http://www.w3.org/2000/svg">
<path d="M45.191 2.69252C46.5678 2.69252 47.771 2.9675 48.8005 3.51746C49.8424 4.05519 50.6425 4.8129 51.2006 5.7906C51.7588 6.7683 52.0379 7.88654 52.0379 9.14532C52.0379 10.3919 51.7526 11.504 51.182 12.4817C50.6239 13.4594 49.8238 14.2293 48.7819 14.7915C47.7524 15.3415 46.5554 15.6164 45.191 15.6164H40V2.69252H45.191ZM44.9119 12.445C45.9786 12.445 46.8159 12.1578 47.4237 11.5835C48.0315 11.0091 48.3354 10.1963 48.3354 9.14532C48.3354 8.08208 48.0315 7.26325 47.4237 6.68886C46.8159 6.10224 45.9786 5.80893 44.9119 5.80893H43.6467V12.445H44.9119Z" fill="white"/>
<path d="M55.5237 4.37905C54.8787 4.37905 54.3578 4.20795 53.9608 3.86576C53.5763 3.51135 53.3841 3.07138 53.3841 2.54587C53.3841 2.00814 53.5763 1.56206 53.9608 1.20765C54.3578 0.853233 54.8787 0.676025 55.5237 0.676025C56.1563 0.676025 56.6649 0.853233 57.0494 1.20765C57.4463 1.56206 57.6448 2.00814 57.6448 2.54587C57.6448 3.07138 57.4463 3.51135 57.0494 3.86576C56.6649 4.20795 56.1563 4.37905 55.5237 4.37905ZM57.3285 5.3323V15.6164H53.6818V5.3323H57.3285Z" fill="white"/>
<path d="M63.2566 5.20398C63.9636 5.20398 64.5776 5.34453 65.0985 5.62561C65.6319 5.9067 66.0412 6.28556 66.3265 6.76219V5.3323H69.9732V15.5065C69.9732 16.4719 69.7872 17.3396 69.4151 18.1096C69.043 18.8917 68.46 19.515 67.6661 19.9794C66.8847 20.4438 65.8924 20.676 64.6892 20.676C63.0767 20.676 61.7867 20.3033 60.8192 19.5578C59.8517 18.8123 59.2998 17.7979 59.1633 16.5147H62.7542C62.8286 16.8447 63.0147 17.1013 63.3124 17.2846C63.6101 17.468 63.9946 17.5596 64.466 17.5596C65.7063 17.5596 66.3265 16.8752 66.3265 15.5065V14.1866C66.0412 14.6632 65.6319 15.0421 65.0985 15.3231C64.5776 15.6042 63.9636 15.7448 63.2566 15.7448C62.4255 15.7448 61.6689 15.5309 60.9867 15.1032C60.3169 14.6754 59.7835 14.0644 59.3866 13.27C59.0021 12.4634 58.8098 11.5285 58.8098 10.4652C58.8098 9.40197 59.0021 8.47315 59.3866 7.67878C59.7835 6.8844 60.3169 6.27334 60.9867 5.84559C61.6689 5.41785 62.4255 5.20398 63.2566 5.20398ZM66.3265 10.4652C66.3265 9.80527 66.1405 9.28586 65.7684 8.90701C65.4086 8.52815 64.9621 8.33872 64.4287 8.33872C63.883 8.33872 63.4302 8.52815 63.0705 8.90701C62.7108 9.27364 62.531 9.79304 62.531 10.4652C62.531 11.1252 62.7108 11.6507 63.0705 12.0417C63.4302 12.4206 63.883 12.61 64.4287 12.61C64.9621 12.61 65.4086 12.4206 65.7684 12.0417C66.1405 11.6629 66.3265 11.1374 66.3265 10.4652Z" fill="white"/>
<path d="M73.8932 4.37905C73.2482 4.37905 72.7273 4.20795 72.3304 3.86576C71.9458 3.51135 71.7536 3.07138 71.7536 2.54587C71.7536 2.00814 71.9458 1.56206 72.3304 1.20765C72.7273 0.853233 73.2482 0.676025 73.8932 0.676025C74.5258 0.676025 75.0344 0.853233 75.4189 1.20765C75.8158 1.56206 76.0143 2.00814 76.0143 2.54587C76.0143 3.07138 75.8158 3.51135 75.4189 3.86576C75.0344 4.20795 74.5258 4.37905 73.8932 4.37905ZM75.698 5.3323V15.6164H72.0513V5.3323H75.698Z" fill="white"/>
<path d="M83.9332 12.555V15.6164H82.3517C79.6849 15.6164 78.3515 14.3149 78.3515 11.7118V8.32039H77.0677V5.3323H78.3515V2.83918H82.0168V5.3323H83.9146V8.32039H82.0168V11.7668C82.0168 12.0479 82.0788 12.2495 82.2029 12.3717C82.3393 12.4939 82.5626 12.555 82.8727 12.555H83.9332Z" fill="white"/>
<path d="M85.0105 10.4652C85.0105 9.40197 85.2027 8.47315 85.5872 7.67878C85.9842 6.8844 86.5175 6.27334 87.1873 5.84559C87.8695 5.41785 88.6262 5.20398 89.4572 5.20398C90.1766 5.20398 90.7968 5.34453 91.3178 5.62561C91.8388 5.9067 92.2419 6.28556 92.5272 6.76219V5.3323H96.1739V15.6164H92.5272V14.1866C92.2419 14.6632 91.8326 15.0421 91.2992 15.3231C90.7782 15.6042 90.1642 15.7448 89.4572 15.7448C88.6262 15.7448 87.8695 15.5309 87.1873 15.1032C86.5175 14.6754 85.9842 14.0644 85.5872 13.27C85.2027 12.4634 85.0105 11.5285 85.0105 10.4652ZM92.5272 10.4652C92.5272 9.80527 92.3411 9.28586 91.969 8.90701C91.6093 8.52815 91.1627 8.33872 90.6294 8.33872C90.0836 8.33872 89.6309 8.52815 89.2712 8.90701C88.9115 9.27364 88.7316 9.79304 88.7316 10.4652C88.7316 11.1252 88.9115 11.6507 89.2712 12.0417C89.6309 12.4206 90.0836 12.61 90.6294 12.61C91.1627 12.61 91.6093 12.4206 91.969 12.0417C92.3411 11.6629 92.5272 11.1374 92.5272 10.4652Z" fill="white"/>
<path d="M101.899 2.05091V15.6164H98.2519V2.05091H101.899Z" fill="white"/>
<path d="M107.622 6.76219C107.907 6.27334 108.31 5.89448 108.831 5.62561C109.352 5.34453 109.966 5.20398 110.673 5.20398C111.504 5.20398 112.255 5.41785 112.925 5.84559C113.607 6.27334 114.14 6.8844 114.525 7.67878C114.922 8.47315 115.12 9.40197 115.12 10.4652C115.12 11.5285 114.922 12.4634 114.525 13.27C114.14 14.0644 113.607 14.6754 112.925 15.1032C112.255 15.5309 111.504 15.7448 110.673 15.7448C109.966 15.7448 109.352 15.6103 108.831 15.3415C108.31 15.0604 107.907 14.6754 107.622 14.1866V15.6164H103.975V2.05091H107.622V6.76219ZM111.418 10.4652C111.418 9.79304 111.232 9.27364 110.859 8.90701C110.5 8.52815 110.053 8.33872 109.52 8.33872C108.987 8.33872 108.534 8.52815 108.162 8.90701C107.802 9.28586 107.622 9.80527 107.622 10.4652C107.622 11.1374 107.802 11.6629 108.162 12.0417C108.534 12.4206 108.987 12.61 109.52 12.61C110.053 12.61 110.5 12.4206 110.859 12.0417C111.232 11.6507 111.418 11.1252 111.418 10.4652Z" fill="white"/>
<path d="M116.026 10.4652C116.026 9.40197 116.218 8.47315 116.603 7.67878C117 6.8844 117.533 6.27334 118.203 5.84559C118.885 5.41785 119.642 5.20398 120.473 5.20398C121.192 5.20398 121.812 5.34453 122.333 5.62561C122.854 5.9067 123.257 6.28556 123.543 6.76219V5.3323H127.189V15.6164H123.543V14.1866C123.257 14.6632 122.848 15.0421 122.315 15.3231C121.794 15.6042 121.18 15.7448 120.473 15.7448C119.642 15.7448 118.885 15.5309 118.203 15.1032C117.533 14.6754 117 14.0644 116.603 13.27C116.218 12.4634 116.026 11.5285 116.026 10.4652ZM123.543 10.4652C123.543 9.80527 123.357 9.28586 122.985 8.90701C122.625 8.52815 122.178 8.33872 121.645 8.33872C121.099 8.33872 120.646 8.52815 120.287 8.90701C119.927 9.27364 119.747 9.79304 119.747 10.4652C119.747 11.1252 119.927 11.6507 120.287 12.0417C120.646 12.4206 121.099 12.61 121.645 12.61C122.178 12.61 122.625 12.4206 122.985 12.0417C123.357 11.6629 123.543 11.1374 123.543 10.4652Z" fill="white"/>
<path d="M136.096 5.24064C137.299 5.24064 138.254 5.63783 138.961 6.43221C139.668 7.21437 140.022 8.27762 140.022 9.62195V15.6164H136.375V10.0986C136.375 9.51196 136.22 9.05366 135.91 8.72369C135.6 8.38149 135.184 8.2104 134.663 8.2104C134.117 8.2104 133.689 8.38149 133.379 8.72369C133.069 9.05366 132.914 9.51196 132.914 10.0986V15.6164H129.268V5.3323H132.914V6.79885C133.237 6.33444 133.671 5.9617 134.217 5.68061C134.762 5.3873 135.389 5.24064 136.096 5.24064Z" fill="white"/>
<path d="M148.553 15.6164L145.669 11.4001V15.6164H142.023V2.05091H145.669V9.3653L148.553 5.3323H152.926L148.814 10.5019L153 15.6164H148.553Z" fill="white"/>
<path fill-rule="evenodd" clip-rule="evenodd" d="M10.8025 0.323975L0 20.028H5.98608L16.7885 0.323975H10.8025Z" fill="url(#paint0_linear_72139_4286)"/>
<path opacity="0.5" fill-rule="evenodd" clip-rule="evenodd" d="M18.1709 0.323975L7.36841 20.028H13.3545L24.157 0.323975H18.1709Z" fill="url(#paint1_linear_72139_4286)"/>
<path opacity="0.15" fill-rule="evenodd" clip-rule="evenodd" d="M25.5393 0.323975L14.7368 20.028H20.7229L31.5254 0.323975H25.5393Z" fill="url(#paint2_linear_72139_4286)"/>
<defs>
<linearGradient id="paint0_linear_72139_4286" x1="5.13267" y1="-7.09813" x2="-10.1946" y2="10.2367" gradientUnits="userSpaceOnUse">
<stop stop-color="#33D35E"/>
<stop offset="1" stop-color="#2AB6D9"/>
</linearGradient>
<linearGradient id="paint1_linear_72139_4286" x1="12.5011" y1="-7.09813" x2="-2.82619" y2="10.2367" gradientUnits="userSpaceOnUse">
<stop stop-color="#33D35E"/>
<stop offset="1" stop-color="#2AB6D9"/>
</linearGradient>
<linearGradient id="paint2_linear_72139_4286" x1="19.8695" y1="-7.09813" x2="4.54222" y2="10.2367" gradientUnits="userSpaceOnUse">
<stop stop-color="#33D35E"/>
<stop offset="1" stop-color="#2AB6D9"/>
</linearGradient>
</defs>
</svg>
